<svg xmlns="http://www.w3.org/2000/svg" data-name="Layer 1" viewBox="0 0 64 64" id="flight-seat"><path fill="none" stroke="#383840" stroke-linecap="round" stroke-linejoin="round" stroke-width="2" d="M25.775 40q.116.5.225 1a46.53 46.53 0 0 1 14.62-.06A7.642 7.642 0 0 1 47 47H21.46a3.167 3.167 0 0 1-3.07-2.38L11 16a8.583 8.583 0 0 1 7.6 4.64 81.411 81.411 0 0 1 5.35 12.75M12 10c-1.882 2.933-1.208 4.326-1 6M11.872 3.735l.872-.312a3.421 3.421 0 0 1 4.373 2.068l1.065 2.973a3.421 3.421 0 0 1-2.068 4.374l-.872.312a1.653 1.653 0 0 1-2.114-1L10.873 5.85a1.653 1.653 0 0 1 1-2.114Z"></path><path fill="none" stroke="#383840" stroke-linecap="round" stroke-linejoin="round" stroke-width="2" d="M42.002 38a2.014 2.014 0 0 1-.36-.032 59.276 59.276 0 0 0-21.284 0 2 2 0 1 1-.716-3.936 63.283 63.283 0 0 1 22.716 0A2 2 0 0 1 42.002 38ZM37 59h-4l-6-12h4l6 12zM17 59h31"></path><rect width="12" height="14" x="27" y="8" fill="none" stroke="#383840" stroke-linecap="round" stroke-linejoin="round" stroke-width="2" rx="3.946"></rect><path fill="none" d="M0 0h64v64H0z"></path></svg>