<svg xmlns="http://www.w3.org/2000/svg" data-name="Layer 1" viewBox="0 0 64 80" x="0px" y="0px"><path d="M44.643,17.105h-6.111V8.184c1.106-.016,2.001-.917,2.001-2.027v-2.127c0-1.119-.91-2.03-2.029-2.03h-13.006c-1.119,0-2.029,.911-2.029,2.03v2.127c0,1.109,.895,2.011,2.001,2.027v8.921h-6.111c-2.543,0-4.612,2.069-4.612,4.612v30.703c0,2.112,1.435,3.878,3.376,4.423v2.494c0,1.468,1.194,2.663,2.663,2.663h.451c1.468,0,2.662-1.194,2.662-2.663v-2.304h16.205v2.304c0,1.468,1.194,2.663,2.662,2.663h.451c1.469,0,2.663-1.194,2.663-2.663v-2.494c1.941-.544,3.376-2.31,3.376-4.423V21.718c0-2.543-2.069-4.612-4.612-4.612ZM25.497,4l13.035,.03-.029,2.157-13.035-.03,.029-2.157Zm1.972,4.187h9.062v8.918h-9.062V8.187Zm-5.571,51.15c0,.365-.297,.663-.662,.663h-.451c-.365,0-.663-.297-.663-.663v-2.304h1.776v2.304Zm21.981,0c0,.365-.298,.663-.663,.663h-.451c-.365,0-.662-.297-.662-.663v-2.304h1.776v2.304Zm3.376-6.917c0,1.44-1.172,2.612-2.612,2.612H19.357c-1.44,0-2.612-1.172-2.612-2.612V21.718c0-1.44,1.172-2.612,2.612-2.612h25.285c1.44,0,2.612,1.172,2.612,2.612v30.703Z"/><path d="M22.631,24.889c-.553,0-1,.448-1,1v22c0,.552,.447,1,1,1s1-.448,1-1V25.889c0-.552-.447-1-1-1Z"/><path d="M28.877,24.889c-.553,0-1,.448-1,1v22c0,.552,.447,1,1,1s1-.448,1-1V25.889c0-.552-.447-1-1-1Z"/><path d="M35.123,24.889c-.553,0-1,.448-1,1v22c0,.552,.447,1,1,1s1-.448,1-1V25.889c0-.552-.447-1-1-1Z"/><path d="M41.369,24.889c-.553,0-1,.448-1,1v22c0,.552,.447,1,1,1s1-.448,1-1V25.889c0-.552-.447-1-1-1Z"/><text x="0" y="79" fill="#000000" font-size="5px" font-weight="bold" font-family="'Helvetica Neue', Helvetica, Arial-Unicode, Arial, Sans-serif">Created by Soekahurip</text><text x="0" y="84" fill="#000000" font-size="5px" font-weight="bold" font-family="'Helvetica Neue', Helvetica, Arial-Unicode, Arial, Sans-serif">from the Noun Project</text></svg>